<svg xmlns="http://www.w3.org/2000/svg" viewBox="0 0 24 24" width="32" height="32">
    <rect width="24" height="24" rx="6" fill="#4F46E5"/>
    <path
        fill="#FFFFFF"
        fill-rule="evenodd"
        clip-rule="evenodd"
        d="M6 2C4.89543 2 4 2.89543 4 4V5H3.5C2.11929 5 1 6.11929 1 7.5V8C1 9.933 2.567 11.5 4.5 11.5H5.08375C6.1824 13.5678 8.16315 15.0745 10.5 15.4172V17.5H8C7.17157 17.5 6.5 18.1716 6.5 19V20C6.5 21.1046 7.39543 22 8.5 22H15.5C16.6046 22 17.5 21.1046 17.5 20V19C17.5 18.1716 16.8284 17.5 16 17.5H13.5V15.4172C15.8368 15.0745 17.8176 13.5678 18.9162 11.5H19.5C21.433 11.5 23 9.933 23 8V7.5C23 6.11929 21.8807 5 20.5 5H20V4C20 2.89543 19.1046 2 18 2H6ZM3.5 7C3.22386 7 3 7.22386 3 7.5V8C3 8.82843 3.67157 9.5 4.5 9.5H5V7H3.5ZM19.5 7H19V9.5H19.5C20.3284 9.5 21 8.82843 21 8V7.5C21 7.22386 20.7761 7 19.5 7ZM12 4.5L13.12 6.77L15.62 7.13L13.81 8.9L14.24 11.4L12 10.22L9.76 11.4L10.19 8.9L8.38 7.13L10.88 6.77L12 4.5Z"
    />
</svg>
